<svg width="23" height="23" viewBox="0 0 23 23" fill="none" xmlns="http://www.w3.org/2000/svg">
<path d="M21.8625 10.5375H19.65C19.275 6.4875 16.125 3.225 12.1875 2.8125V0.8625C12.1875 0.4125 11.8125 0 11.325 0C10.875 0 10.4625 0.375 10.4625 0.8625V2.8125C6.525 3.225 3.375 6.45 3 10.5375H0.8625C0.4125 10.5375 0 10.9125 0 11.4C0 11.85 0.375 12.2625 0.8625 12.2625H3.075C3.45 16.3125 6.6 19.575 10.5375 19.9875V21.8625C10.5375 22.3125 10.9125 22.725 11.4 22.725C11.85 22.725 12.2625 22.35 12.2625 21.8625V19.9125C16.2 19.5 19.35 16.275 19.725 12.1875H21.8625C22.3125 12.1875 22.725 11.8125 22.725 11.325C22.725 10.9125 22.3125 10.5375 21.8625 10.5375ZM17.9625 10.5375H15.6375C15.3 8.7375 13.95 7.3125 12.1875 6.975V4.5375C15.225 4.9125 17.5875 7.3875 17.9625 10.5375ZM11.3625 14.175C9.8625 14.175 8.6625 12.9 8.6625 11.3625C8.6625 9.825 9.8625 8.5875 11.325 8.55C12.7875 8.55 13.9875 9.825 13.9875 11.3625C14.025 12.9 12.825 14.1375 11.3625 14.175ZM10.5375 4.5V6.9375C8.8125 7.275 7.425 8.7 7.0875 10.5H4.7625C5.1375 7.3875 7.5 4.9125 10.5375 4.5ZM4.7625 12.225H7.0875C7.425 14.025 8.775 15.45 10.5375 15.7875V18.225C7.5 17.8125 5.1375 15.3375 4.7625 12.225ZM12.225 18.225V15.7875C13.95 15.45 15.3375 14.025 15.675 12.225H18C17.5875 15.3375 15.225 17.8125 12.225 18.225Z" fill="#003865"/>
</svg>
