<svg width="24" height="33" viewBox="0 0 24 33" fill="none" xmlns="http://www.w3.org/2000/svg">
<g filter="url(#filter0_d_41_467)">
<path d="M14.6209 0.0234007C14.4809 0.0649709 14.3477 0.126466 14.2252 0.205994L5.09556 4.77084C4.8816 4.83324 4.68396 4.94189 4.51662 5.08909C4.34928 5.23629 4.21631 5.41846 4.12713 5.62272C4.03795 5.82697 3.99472 6.04832 4.00051 6.27112C4.0063 6.49392 4.06097 6.71273 4.16064 6.91207C4.26031 7.11142 4.40256 7.28643 4.57733 7.42475C4.75209 7.56306 4.95511 7.66129 5.17202 7.7125C5.38893 7.7637 5.61444 7.76663 5.83261 7.72108C6.05078 7.67553 6.25628 7.5826 6.43458 7.44888L15.5643 2.88404C15.892 2.72105 16.15 2.44542 16.2909 2.10765C16.4319 1.76989 16.4464 1.39264 16.3317 1.04506C16.2171 0.697473 15.981 0.402853 15.6668 0.215207C15.3526 0.0275617 14.9812 -0.0405352 14.6209 0.0234007ZM17.6641 4.58824C17.5241 4.62981 17.3909 4.69131 17.2685 4.77084L5.09556 10.8573C4.8816 10.9197 4.68396 11.0283 4.51662 11.1755C4.34928 11.3228 4.21631 11.5049 4.12713 11.7092C4.03795 11.9134 3.99472 12.1348 4.00051 12.3576C4.0063 12.5804 4.06097 12.7992 4.16064 12.9985C4.26031 13.1979 4.40256 13.3729 4.57733 13.5112C4.75209 13.6495 4.95511 13.7477 5.17202 13.799C5.38893 13.8502 5.61444 13.8531 5.83261 13.8075C6.05078 13.762 6.25628 13.6691 6.43458 13.5353L18.6075 7.44888C18.9352 7.2859 19.1932 7.01026 19.3341 6.6725C19.4751 6.33473 19.4896 5.95748 19.375 5.6099C19.2603 5.26232 19.0243 4.9677 18.71 4.78005C18.3958 4.5924 18.0245 4.52431 17.6641 4.58824ZM17.6641 10.6747C17.5241 10.7163 17.3909 10.7778 17.2685 10.8573L8.13879 15.4221C7.8443 15.5806 7.61022 15.8317 7.47276 16.1366C7.3353 16.4415 7.3021 16.7831 7.37832 17.1088C7.45453 17.4344 7.6359 17.7259 7.89438 17.9381C8.15286 18.1503 8.47406 18.2714 8.8083 18.2828H14.8948C15.2983 18.3473 15.711 18.249 16.042 18.0093C16.373 17.7696 16.5953 17.4082 16.6598 17.0046C16.7244 16.6011 16.626 16.1884 16.3863 15.8574C16.1466 15.5263 15.7852 15.3041 15.3817 15.2395L18.6075 13.5353C18.9352 13.3724 19.1932 13.0967 19.3341 12.759C19.4751 12.4212 19.4896 12.0439 19.375 11.6964C19.2603 11.3488 19.0243 11.0542 18.71 10.8665C18.3958 10.6789 18.0245 10.6108 17.6641 10.6747ZM9.87343 21.326C9.46987 21.3906 9.1085 21.6128 8.86879 21.9438C8.62909 22.2748 8.53071 22.6875 8.59528 23.0911C8.65984 23.4946 8.88208 23.856 9.2131 24.0957C9.54411 24.3354 9.95679 24.4338 10.3603 24.3692H13.4036C13.8071 24.3692 14.1942 24.2089 14.4795 23.9236C14.7649 23.6382 14.9252 23.2512 14.9252 22.8476C14.9252 22.4441 14.7649 22.057 14.4795 21.7717C14.1942 21.4863 13.8071 21.326 13.4036 21.326H10.3603C10.2692 21.3178 10.1776 21.3178 10.0865 21.326C10.0256 21.3223 9.96467 21.3223 9.90386 21.326H9.87343Z" fill="#252F40"/>
</g>
<defs>
<filter id="filter0_d_41_467" x="0" y="0" width="23.4515" height="32.3886" filterUnits="userSpaceOnUse" color-interpolation-filters="sRGB">
<feFlood flood-opacity="0" result="BackgroundImageFix"/>
<feColorMatrix in="SourceAlpha" type="matrix" values="0 0 0 0 0 0 0 0 0 0 0 0 0 0 0 0 0 0 127 0" result="hardAlpha"/>
<feOffset dy="4"/>
<feGaussianBlur stdDeviation="2"/>
<feComposite in2="hardAlpha" operator="out"/>
<feColorMatrix type="matrix" values="0 0 0 0 0 0 0 0 0 0 0 0 0 0 0 0 0 0 0.05 0"/>
<feBlend mode="normal" in2="BackgroundImageFix" result="effect1_dropShadow_41_467"/>
<feBlend mode="normal" in="SourceGraphic" in2="effect1_dropShadow_41_467" result="shape"/>
</filter>
</defs>
</svg>
