<svg width="11" height="13" viewBox="0 0 11 13" fill="none" xmlns="http://www.w3.org/2000/svg">
<path d="M6.43312 11.0073L6.43312 3.42132L8.87213 5.71432C9.13919 5.97428 9.53467 6.07854 9.90656 5.98702C10.2785 5.89551 10.5689 5.62246 10.6662 5.27283C10.7636 4.9232 10.6527 4.5514 10.3762 4.30032L6.12146 0.300324C5.92191 0.112241 5.65095 0.00653648 5.36838 0.00653648C5.08581 0.00653648 4.81485 0.112241 4.6153 0.300324L0.360593 4.30032C-0.0547355 4.69134 -0.0542593 5.32486 0.361657 5.71532C0.777573 6.10579 1.45143 6.10534 1.86676 5.71432L4.30577 3.42132L4.30577 11.0073C4.30577 11.5596 4.78199 12.0073 5.36944 12.0073C5.95689 12.0073 6.43312 11.5596 6.43312 11.0073Z" fill="#82D616"/>
</svg>
