<svg width="15" height="15" viewBox="0 0 15 15" fill="none" xmlns="http://www.w3.org/2000/svg">
<path opacity="0.4" d="M11.0067 0H4C1.44667 0 0 1.44667 0 4V11C0 13.5533 1.44667 15 4 15H11.0067C13.56 15 15 13.5533 15 11V4C15 1.44667 13.56 0 11.0067 0Z" fill="#003865"/>
<path opacity="0.4" d="M11.0067 0H4C1.44667 0 0 1.44667 0 4V11C0 13.5533 1.44667 15 4 15H11.0067C13.56 15 15 13.5533 15 11V4C15 1.44667 13.56 0 11.0067 0Z" fill="#003865"/>
<path d="M4.02652 5.52673C3.68652 5.52673 3.40652 5.80673 3.40652 6.1534V11.3067C3.40652 11.6467 3.68652 11.9267 4.02652 11.9267C4.37319 11.9267 4.65319 11.6467 4.65319 11.3067V6.1534C4.65319 5.80673 4.37319 5.52673 4.02652 5.52673Z" fill="white"/>
<path d="M7.52654 3.06673C7.18654 3.06673 6.90654 3.34673 6.90654 3.69339V11.3067C6.90654 11.6467 7.18654 11.9267 7.52654 11.9267C7.87321 11.9267 8.15321 11.6467 8.15321 11.3067V3.69339C8.15321 3.34673 7.87321 3.06673 7.52654 3.06673Z" fill="white"/>
<path d="M10.9799 8.24673C10.6333 8.24673 10.3533 8.52673 10.3533 8.8734V11.3067C10.3533 11.6467 10.6333 11.9267 10.9733 11.9267C11.3199 11.9267 11.5999 11.6467 11.5999 11.3067V8.8734C11.5999 8.52673 11.3199 8.24673 10.9799 8.24673Z" fill="white"/>
</svg>
