<svg width="31" height="31" viewBox="0 0 31 31" fill="none" xmlns="http://www.w3.org/2000/svg">
<g filter="url(#filter0_d_42_536)">
<path d="M18.7881 11.719L18.7882 11.719L18.7911 11.7161C18.9333 11.5738 19.1417 11.5738 19.284 11.7161C19.426 11.8581 19.4262 12.066 19.2847 12.2082C19.2845 12.2085 19.2842 12.2087 19.284 12.2089L15.594 15.8617C15.4897 15.9409 15.4132 15.9625 15.325 15.9625C15.1993 15.9625 15.1136 15.919 15.0786 15.8839L15.0768 15.8822L11.3661 12.209C11.3658 12.2087 11.3656 12.2085 11.3654 12.2082C11.2238 12.066 11.2241 11.8581 11.3661 11.7161C11.5083 11.5738 11.7167 11.5738 11.859 11.7161L11.859 11.7161L11.8619 11.719L14.1494 13.969L15 14.8056V13.6125V7.125C15 6.95115 15.1512 6.8 15.325 6.8C15.4989 6.8 15.65 6.95115 15.65 7.125V13.6125V14.8056L16.5006 13.969L18.7881 11.719Z" fill="#003865" stroke="#003865"/>
<path d="M4.5 11.3625C4.5 5.37399 9.34079 0.5 15.325 0.5C21.3092 0.5 26.15 5.37399 26.15 11.3625C26.15 17.351 21.3092 22.225 15.325 22.225C9.34079 22.225 4.5 17.351 4.5 11.3625ZM5.15 11.3625C5.15 16.9636 9.72386 21.5375 15.325 21.5375C20.9261 21.5375 25.5 16.9636 25.5 11.3625C25.5 5.76136 20.9261 1.1875 15.325 1.1875C9.72386 1.1875 5.15 5.76136 5.15 11.3625Z" fill="#003865" stroke="#003865"/>
</g>
<defs>
<filter id="filter0_d_42_536" x="0" y="0" width="30.65" height="30.725" filterUnits="userSpaceOnUse" color-interpolation-filters="sRGB">
<feFlood flood-opacity="0" result="BackgroundImageFix"/>
<feColorMatrix in="SourceAlpha" type="matrix" values="0 0 0 0 0 0 0 0 0 0 0 0 0 0 0 0 0 0 127 0" result="hardAlpha"/>
<feOffset dy="4"/>
<feGaussianBlur stdDeviation="2"/>
<feComposite in2="hardAlpha" operator="out"/>
<feColorMatrix type="matrix" values="0 0 0 0 0 0 0 0 0 0 0 0 0 0 0 0 0 0 0.1 0"/>
<feBlend mode="normal" in2="BackgroundImageFix" result="effect1_dropShadow_42_536"/>
<feBlend mode="normal" in="SourceGraphic" in2="effect1_dropShadow_42_536" result="shape"/>
</filter>
</defs>
</svg>
