<svg width="22" height="18" viewBox="0 0 22 18" fill="none" xmlns="http://www.w3.org/2000/svg">
<path d="M19.4261 4.22869L14.2644 3.13948C14.2644 3.04337 14.2993 2.9793 14.2993 2.8832C14.2993 1.28142 12.9042 0 11.1953 0C9.45146 0 8.05641 1.28142 8.05641 2.8832C8.05641 3.20355 8.16104 3.62001 8.3703 4.10055L7.35889 4.29276L2.7901 3.10745C2.12745 2.94727 1.42993 3.04337 0.871906 3.4278C0.313886 3.81223 0 4.38887 0 5.02958V14.1917C0 15.0887 0.662649 15.8896 1.60431 16.1139L7.11475 17.5555C7.11475 17.5555 7.11475 17.5555 7.14963 17.5555C7.21938 17.5555 7.28913 17.5875 7.35889 17.5875C7.42864 17.5875 7.46351 17.5875 7.53327 17.5875L13.8807 16.3702L18.4844 17.3633C18.6588 17.3953 18.7983 17.4273 18.9727 17.4273C19.4609 17.4273 19.9492 17.2671 20.3328 16.9788C20.856 16.5944 21.1699 16.0178 21.1699 15.4091V6.18286C21.135 5.25383 20.4375 4.45294 19.4261 4.22869ZM11.1604 1.4416C12.0323 1.4416 12.695 2.08231 12.695 2.8832C12.695 3.23559 12.2067 4.29276 11.1255 5.83046C10.0444 4.29276 9.55609 3.26762 9.55609 2.8832C9.59097 2.08231 10.2885 1.4416 11.1604 1.4416ZM9.03295 5.414C9.41658 6.05471 9.86998 6.69542 10.2885 7.24003C10.4629 7.49631 10.8116 7.65649 11.1255 7.65649C11.4743 7.65649 11.7882 7.49631 11.9625 7.24003C12.3113 6.75949 12.695 6.24693 13.0437 5.70232V14.9926L8.12616 15.9537V5.60622L9.03295 5.414ZM1.60431 14.1597V5.02958C1.60431 4.83736 1.70894 4.67719 1.84844 4.58108C1.98795 4.48497 2.1972 4.45294 2.37158 4.48497L6.55673 5.57418V15.8896L2.02282 14.7043C1.77869 14.6402 1.60431 14.416 1.60431 14.1597ZM19.5656 15.345C19.5656 15.5693 19.4261 15.7294 19.3214 15.7935C19.2517 15.8576 19.0424 15.9537 18.7983 15.8896L14.6131 14.9926V4.67719L19.0773 5.63825C19.3563 5.70232 19.5656 5.92657 19.5656 6.18286V15.345Z" fill="#003865"/>
<path d="M11.2999 3.49185C11.3348 3.49185 11.4045 3.45982 11.4394 3.45982C11.4743 3.45982 11.544 3.42778 11.5789 3.39574C11.6138 3.36371 11.6487 3.33167 11.6835 3.29964C11.823 3.1715 11.9277 2.97928 11.9277 2.78707C11.9277 2.59486 11.8579 2.40264 11.6835 2.2745C11.6487 2.24247 11.6138 2.21043 11.5789 2.17839C11.544 2.14636 11.4743 2.11432 11.4394 2.11432C11.4045 2.08229 11.3348 2.08229 11.2999 2.08229C11.0558 2.05025 10.7768 2.11432 10.6024 2.2745C10.4629 2.40264 10.3582 2.59486 10.3582 2.78707C10.3582 2.97928 10.428 3.1715 10.6024 3.29964C10.7419 3.42778 10.9511 3.52389 11.1604 3.52389C11.1953 3.49185 11.265 3.49185 11.2999 3.49185Z" fill="#003865"/>
</svg>
