<svg width="16" height="19" viewBox="0 0 16 19" fill="none" xmlns="http://www.w3.org/2000/svg">
<path d="M7.57026 18.483C3.3883 18.483 0 15.0947 0 10.9128C0 5.35718 6.86818 0.35104 7.14291 0.137364C7.38711 -0.0457879 7.72289 -0.0457879 7.96709 0.137364C8.27235 0.35104 15.11 5.63191 15.11 10.9128C15.1405 15.0642 11.7522 18.483 7.57026 18.483ZM7.57026 1.57205C6.13558 2.70149 1.40416 6.79187 1.40416 10.9128C1.40416 14.3316 4.18196 17.1094 7.60079 17.1094C11.0196 17.1094 13.7974 14.3316 13.7974 10.9128C13.7669 6.97502 9.00495 2.76254 7.57026 1.57205Z" fill="#003865"/>
</svg>
