<svg width="33" height="33" viewBox="0 0 33 33" fill="none" xmlns="http://www.w3.org/2000/svg">
<path d="M15.125 21.1172H15.0549C14.7088 21.1172 14.3769 20.9798 14.1322 20.7351C13.8875 20.4903 13.75 20.1584 13.75 19.8124C13.75 19.4477 13.6051 19.098 13.3473 18.8401C13.0894 18.5822 12.7397 18.4374 12.375 18.4374C12.0103 18.4374 11.6606 18.5822 11.4027 18.8401C11.1449 19.098 11 19.4477 11 19.8124C11 20.8878 11.4272 21.9192 12.1876 22.6796C12.9481 23.44 13.9795 23.8672 15.0549 23.8672H15.125V25.2422C15.125 25.6069 15.2699 25.9567 15.5277 26.2145C15.7856 26.4724 16.1353 26.6172 16.5 26.6172C16.8647 26.6172 17.2144 26.4724 17.4723 26.2145C17.7301 25.9567 17.875 25.6069 17.875 25.2422V23.8672C18.969 23.8672 20.0182 23.4327 20.7918 22.6591C21.5654 21.8855 22 20.8363 22 19.7422C22 18.6482 21.5654 17.599 20.7918 16.8254C20.0182 16.0518 18.969 15.6172 17.875 15.6172V12.8672H17.9053C18.6478 12.8672 19.25 13.4695 19.25 14.212C19.25 14.5767 19.3949 14.9264 19.6527 15.1843C19.9106 15.4421 20.2603 15.587 20.625 15.587C20.9897 15.587 21.3394 15.4421 21.5973 15.1843C21.8551 14.9264 22 14.5767 22 14.212C22 13.126 21.5686 12.0845 20.8007 11.3166C20.0328 10.5487 18.9912 10.1172 17.9053 10.1172H17.875V8.74225C17.875 8.37758 17.7301 8.02784 17.4723 7.76998C17.2144 7.51211 16.8647 7.36725 16.5 7.36725C16.1353 7.36725 15.7856 7.51211 15.5277 7.76998C15.2699 8.02784 15.125 8.37758 15.125 8.74225V10.1172C14.5833 10.1172 14.0469 10.2239 13.5464 10.4312C13.046 10.6385 12.5912 10.9424 12.2082 11.3254C11.8251 11.7085 11.5213 12.1632 11.314 12.6637C11.1067 13.1641 11 13.7005 11 14.2422C11 14.784 11.1067 15.3203 11.314 15.8208C11.5213 16.3213 11.8251 16.776 12.2082 17.1591C12.5912 17.5421 13.046 17.846 13.5464 18.0533C14.0469 18.2606 14.5833 18.3672 15.125 18.3672V21.1172ZM17.875 21.1172V18.3672C18.2397 18.3672 18.5894 18.5121 18.8473 18.77C19.1051 19.0278 19.25 19.3776 19.25 19.7422C19.25 20.1069 19.1051 20.4567 18.8473 20.7145C18.5894 20.9724 18.2397 21.1172 17.875 21.1172ZM15.125 12.8672V15.6172C14.7603 15.6172 14.4106 15.4724 14.1527 15.2145C13.8949 14.9567 13.75 14.6069 13.75 14.2422C13.75 13.8776 13.8949 13.5278 14.1527 13.27C14.4106 13.0121 14.7603 12.8672 15.125 12.8672V12.8672ZM16.5 30.7422C8.90588 30.7422 2.75 24.5864 2.75 16.9922C2.75 9.39812 8.90588 3.24225 16.5 3.24225C24.0941 3.24225 30.25 9.39812 30.25 16.9922C30.25 24.5864 24.0941 30.7422 16.5 30.7422Z" fill="white"/>
</svg>
