<svg width="11" height="13" viewBox="0 0 11 13" fill="none" xmlns="http://www.w3.org/2000/svg">
<path d="M6.44017 11.0073L6.44017 3.42132L8.87918 5.71432C9.14624 5.97428 9.54172 6.07854 9.91361 5.98702C10.2855 5.89551 10.5759 5.62246 10.6733 5.27283C10.7706 4.9232 10.6597 4.5514 10.3832 4.30032L6.12851 0.300324C5.92896 0.112241 5.658 0.00653648 5.37543 0.00653648C5.09286 0.00653648 4.8219 0.112241 4.62235 0.300324L0.367643 4.30032C-0.0476859 4.69134 -0.0472097 5.32486 0.368706 5.71532C0.784622 6.10579 1.45848 6.10534 1.87381 5.71432L4.31282 3.42132L4.31282 11.0073C4.31282 11.5596 4.78904 12.0073 5.37649 12.0073C5.96394 12.0073 6.44017 11.5596 6.44017 11.0073Z" fill="#E72A00"/>
</svg>
